<?xml version="1.0" standalone="no"?>
<!DOCTYPE svg PUBLIC "-//W3C//DTD SVG 20010904//EN"
 "http://www.w3.org/TR/2001/REC-SVG-20010904/DTD/svg10.dtd">
<svg version="1.0" xmlns="http://www.w3.org/2000/svg"
 width="630.000000pt" height="630.000000pt" viewBox="0 0 630.000000 630.000000"
 preserveAspectRatio="xMidYMid meet">
<metadata>
Created by potrace 1.14, written by Peter Selinger 2001-2017
</metadata>
<g transform="translate(0.000000,630.000000) scale(0.100000,-0.100000)"
fill="#000000" stroke="none">
<path d="M1777 4523 c-4 -3 -7 -303 -7 -665 l0 -658 95 0 95 0 2 568 3 567 93
3 92 3 0 -191 0 -190 95 0 95 0 0 285 0 285 -278 0 c-153 0 -282 -3 -285 -7z"/>
<path d="M4057 4524 c-4 -4 -7 -47 -7 -96 l0 -88 145 0 145 0 0 -750 0 -751
93 3 92 3 0 840 0 840 -231 3 c-127 1 -233 -1 -237 -4z"/>
<path d="M2540 3951 l0 -571 -100 0 -100 0 0 190 0 190 -90 0 -90 0 0 -280 0
-281 408 3 c397 3 408 4 448 25 52 28 100 82 114 130 8 26 10 193 8 529 l-3
490 -28 42 c-15 23 -46 54 -69 69 l-41 28 -229 3 -228 3 0 -570z m408 377 c9
-9 12 -127 12 -470 0 -442 -1 -458 -19 -468 -11 -5 -65 -10 -120 -10 l-101 0
0 480 0 480 108 0 c71 0 112 -4 120 -12z"/>
<path d="M1772 2438 l3 -663 1375 0 1375 0 3 228 2 227 -95 0 -95 0 0 -135 0
-135 -1190 0 -1190 0 0 570 0 570 -95 0 -95 0 2 -662z"/>
<path d="M2150 2840 l0 -210 155 0 156 0 -3 -92 -3 -93 -152 -3 -153 -3 0 -54
0 -55 215 0 215 0 0 210 0 210 -155 0 -156 0 3 93 3 92 153 3 152 3 0 54 0 55
-215 0 -215 0 0 -210z"/>
<path d="M2640 2385 l0 -365 60 0 59 0 3 153 3 152 150 3 150 2 -2 208 -2 207
-211 3 -210 2 0 -365z m302 150 l0 -90 -89 0 -88 0 -3 93 -3 93 92 -3 91 -3 0
-90z"/>
<path d="M3130 2540 l0 -210 455 0 455 0 0 55 0 54 -152 3 -153 3 -3 93 -3 92
156 0 155 0 0 60 0 60 -210 0 -209 0 -3 -152 -3 -153 -30 0 -30 0 -3 153 -3
152 -209 0 -210 0 0 -210z m300 -5 l0 -95 -90 0 -90 0 0 95 0 95 90 0 90 0 0
-95z"/>
<path d="M4100 2691 l0 -60 60 -46 c33 -25 60 -47 60 -49 0 -1 -27 -22 -60
-46 l-60 -43 0 -59 0 -58 215 0 215 0 0 55 0 55 -120 0 c-66 0 -120 3 -120 8
0 4 25 25 56 47 l56 40 -24 20 c-13 11 -40 32 -59 47 l-34 27 123 1 122 0 0
60 0 60 -215 0 -215 0 0 -59z"/>
</g>
</svg>
